PathFileType	4	(X/Y/Z)	/Users/visionmauri/Downloads/Videos/OAW12-top_Sports2D/OAW12-top_Sports2D_px_person00.trc
DataRate	CameraRate	NumFrames	NumMarkers	Units	OrigDataRate	OrigDataStartFrame	OrigNumFrames
25.0	25.0	6	22	m	25.0	216	1729
Frame#	Time	Hip			RHip			RKnee			RAnkle			RBigToe			RSmallToe			RHeel			LHip			LKnee			LAnkle			LBigToe			LSmallToe			LHeel			Neck			Head			Nose			RShoulder			RElbow			RWrist			LShoulder			LElbow			LWrist			
		X1	Y1	Z1	X2	Y2	Z2	X3	Y3	Z3	X4	Y4	Z4	X5	Y5	Z5	X6	Y6	Z6	X7	Y7	Z7	X8	Y8	Z8	X9	Y9	Z9	X10	Y10	Z10	X11	Y11	Z11	X12	Y12	Z12	X13	Y13	Z13	X14	Y14	Z14	X15	Y15	Z15	X16	Y16	Z16	X17	Y17	Z17	X18	Y18	Z18	X19	Y19	Z19	X20	Y20	Z20	X21	Y21	Z21	X22	Y22	Z22
216	8.645	538.5050286643865	463.51960711495366	0.0	523.1328253155021	464.7722176968223	0.0	524.1655633260556	527.9001796788718	0.0	521.5511354936524	569.4719131777468	0.0	525.8579656100787	589.7604962958618	0.0	516.8889958247136	587.3752172518726	0.0	521.5335557874271	574.4029998067473	0.0	552.4528417087807	462.7235152825773	0.0	547.3461044514758	525.7716958265567	0.0	546.0816041968415	582.6661480327332	0.0	543.7012289058712	601.2107279796595	0.0	552.5610378742288	599.0127752346627	0.0	544.3051007185774	591.1856043238363	0.0	540.5721594006319	378.9776566734124	0.0	543.5483918110525	334.4785912539335	0.0	541.4420916629454	364.60228079803875	0.0	514.7413446070897	390.2336163181951	0.0	502.99994722664536	433.07878795637487	0.0	501.6691013809595	471.1078219991973	0.0	566.6058657626414	390.4527678807759	0.0	574.921042969511	434.1318558612298	0.0	577.5398860389479	472.5145979982078	0.0
217	8.685023148148147	539.5371611598214	463.45109560803775	0.0	523.737968986313	464.4145971660377	0.0	524.5111049631009	528.4481456862737	0.0	521.3412712868459	568.7402650667174	0.0	526.2994230569577	590.0927490578588	0.0	517.1583834250459	587.6517833179213	0.0	521.0940702491927	573.5070610014233	0.0	553.6251704947339	462.63904671451513	0.0	547.9075106960821	526.4563109225145	0.0	546.1078673958884	582.851816197467	0.0	543.7406145088582	601.2952956382155	0.0	552.5389010537738	599.0617987839058	0.0	544.2689189983788	591.6233007633962	0.0	541.7765097528876	379.47728651998506	0.0	544.6525988736379	335.2253815696852	0.0	542.6419275432976	365.3238995526471	0.0	515.9710141255392	390.24025267427584	0.0	504.1703123069448	432.81784829946804	0.0	501.99538128355056	471.3572119943787	0.0	567.7392065610542	390.82958573112364	0.0	575.9715905641345	434.82658893989196	0.0	578.9072939199988	472.59557338433467	0.0
218	8.725046296296297	540.436237741699	463.3473798251061	0.0	524.2548394109593	464.54516568575576	0.0	525.0070174744386	529.187409352603	0.0	521.1817619853249	567.5840912686467	0.0	526.4104503050377	590.0410005955757	0.0	517.4892132149951	587.5966084815004	0.0	520.6371328969542	572.2625490878338	0.0	554.7760116727702	463.2743884784957	0.0	548.7573972722686	526.9652954349147	0.0	546.0652277739414	582.7841422858538	0.0	543.9191965550463	601.1100290125357	0.0	552.4610123218507	598.9270627644112	0.0	544.0732727521125	591.4141740708623	0.0	542.9409321767964	379.3267407937693	0.0	545.1833807048091	334.46966885974007	0.0	543.491582144519	364.9933667673391	0.0	516.8501392624185	389.8242572851069	0.0	505.09943109407493	432.5991838636992	0.0	501.8771247987637	470.66857810543735	0.0	568.9471064920006	390.61918189507577	0.0	577.0544057280497	434.66182572275187	0.0	580.2718617858106	472.14771360632085	0.0
219	8.765069444444444	541.1569104553879	463.30982385617045	0.0	524.8907180804479	464.4511016800729	0.0	525.4738827625625	529.2922824129146	0.0	521.1922475456009	566.6682529837444	0.0	526.4464665526	589.9942191866679	0.0	517.6465100344813	587.6329784657788	0.0	520.5749722753457	570.4164983170759	0.0	555.7632622579796	463.39652926964703	0.0	549.8868663493212	526.9694951580069	0.0	546.1347245247377	582.8979376581906	0.0	544.1532376713415	601.4223919261125	0.0	552.4935561801594	599.2880938860563	0.0	543.8819223120187	591.3202629310226	0.0	544.3180544655698	378.8795107880637	0.0	546.2790090536462	333.6401590157011	0.0	544.500421017649	364.46438693893754	0.0	517.6703256498987	389.5583826215695	0.0	505.65382523900564	432.8506116738708	0.0	501.8569489462772	470.13928807489486	0.0	570.3604211795068	390.4059696577856	0.0	578.5105958136219	434.4227343538199	0.0	581.9449634493037	472.239702606101	0.0
220	8.805092592592592	541.8391809802116	463.3380564492525	0.0	525.6160620522508	464.29522721178995	0.0	526.0442073775306	529.277944839566	0.0	521.4792046688298	566.8047649879271	0.0	526.4610907728949	590.575444910593	0.0	517.593673398972	588.18076445964	0.0	520.7886128671045	570.1423208295437	0.0	556.5215881853	463.0124451363365	0.0	550.7366672781678	527.1610038077246	0.0	546.3734164024079	583.1996879112976	0.0	544.02452188311	601.8697938598148	0.0	552.5232175106535	599.9723030832677	0.0	543.8422975645678	591.5060905997489	0.0	545.3770280561878	378.5684553817044	0.0	547.5284692632791	333.9583891542416	0.0	545.5994154771488	364.44522656658404	0.0	518.4937502042505	389.46285236813407	0.0	506.14998029014055	433.13998104377623	0.0	502.0237560026642	470.2126623592379	0.0	571.6439550673699	390.4812338590264	0.0	579.8867548336364	434.5787142293679	0.0	583.672632553462	472.7635509301093	0.0
221	8.845115740740741	542.3450088490953	463.4145249273354	0.0	526.1555618370211	464.42617089304815	0.0	526.7271238717858	529.8191058621219	0.0	522.0337266190235	568.5401118744286	0.0	526.4183463894091	592.1261485467145	0.0	517.6400392528695	589.4120621532969	0.0	521.1125671186227	573.0744783494207	0.0	556.9579979520776	463.1523283501815	0.0	551.0535595468504	527.758004373205	0.0	546.3642417588226	583.4092846701789	0.0	543.3500335487239	601.9442128317858	0.0	552.1293909100187	600.4007201116489	0.0	543.7921463636751	591.3505119218861	0.0	545.7978911952315	378.1367306782406	0.0	548.0231231594188	334.2376298208559	0.0	546.3431255944103	364.34155621803825	0.0	519.2135137579437	389.1388496507054	0.0	506.83025551917035	432.67318418752654	0.0	502.0539664587192	470.2096809435912	0.0	572.3752895340946	390.32526746468596	0.0	580.7827731256941	434.717080707779	0.0	584.8506759654017	472.97945362543794	0.0
